<?xml version="1.0" encoding="UTF-8"?>
<svg width="387px" height="452px" viewBox="0 0 387 452" version="1.1" xmlns="http://www.w3.org/2000/svg" xmlns:xlink="http://www.w3.org/1999/xlink">
    <!-- Generator: Sketch 64 (93537) - https://sketch.com -->
    <title>Asset 7</title>
    <desc>Created with Sketch.</desc>
    <g id="Page-1" stroke="none" stroke-width="0" fill="none" fill-rule="evenodd">
        <g id="test-intro-copy-3" transform="translate(-527.000000, -274.000000)" fill="#000000" fill-rule="nonzero">
            <g id="RENAME" transform="translate(470.000000, 262.000000)">
                <g id="Asset-7" transform="translate(57.000000, 12.000000)">
                    <path d="M193.997949,262 C172.348718,262 157.956923,255.959231 149.690256,250.894623 C140.664615,245.360315 136.78359,239.793331 136.619487,239.560523 L136,238.645626 L136.611282,237.734814 C136.812308,237.432571 157.124103,207.510545 193.161026,207 L194.067692,207 C229.468718,207 251.142564,237.408065 251.355897,237.714392 L251.355897,237.714392 L252,238.637457 L251.368205,239.57686 C251.21641,239.781078 235.52,262 193.997949,262 Z M138.100513,238.641542 C138.510769,239.209268 142.22359,244.290212 150.613333,249.432422 C158.687179,254.382667 172.767179,260.284569 194.014359,260.284569 C233.517949,260.284569 249.091282,239.785163 249.928205,238.637457 C248.96,237.285534 227.926154,208.703178 194.09641,208.703178 L193.197949,208.703178 C158.793846,209.213723 138.974359,237.342715 138.100513,238.641542 Z" id="Shape"></path>
                    <path d="M194,258 C179.128519,258 167,246.546679 167,232.5 C167,218.453321 179.111995,207 194,207 C208.888005,207 221,218.453321 221,232.5 C221,246.546679 208.888005,258 194,258 Z M194,208.717998 C180.066248,208.717998 168.730875,219.385948 168.730875,232.5 C168.730875,245.614052 180.066248,256.273821 194,256.273821 C207.933752,256.273821 219.264994,245.601781 219.264994,232.491819 C219.264994,219.381858 207.942013,208.717998 194,208.717998 Z" id="Shape"></path>
                    <path d="M192.510319,246 C183.429644,246 176,239.045705 176,230.5 C176,221.954295 183.396623,215 192.510319,215 C201.624015,215 209,221.954295 209,230.5 C209,239.045705 201.603377,246 192.510319,246 Z M192.510319,216.705081 C184.374859,216.705081 177.754221,222.89209 177.754221,230.508119 C177.754221,238.124149 184.358349,244.311158 192.510319,244.311158 C200.662289,244.311158 207.266417,238.124149 207.266417,230.508119 C207.266417,222.89209 200.649906,216.688842 192.510319,216.688842 L192.510319,216.705081 Z" id="Shape"></path>
                    <polygon id="Rectangle" transform="translate(137.982973, 228.360902) rotate(-51.110000) translate(-137.982973, -228.360902) " points="136.343806 223.621257 139.624464 223.620453 139.62214 233.100548 136.341482 233.101352"></polygon>
                    <polygon id="Rectangle" transform="translate(144.283058, 218.627677) rotate(-37.000000) translate(-144.283058, -218.627677) " points="142.644451 212.318856 145.924708 212.318065 145.921665 224.936499 142.641408 224.93729"></polygon>
                    <polygon id="Path" points="155.029661 218 148 205.575154 150.974576 204 158 216.420744"></polygon>
                    <polygon id="Rectangle" transform="translate(163.710929, 204.232328) rotate(-22.320000) translate(-163.710929, -204.232328) " points="162.074357 196.702563 165.350155 196.701985 165.347501 211.762094 162.071703 211.762671"></polygon>
                    <polygon id="Rectangle" transform="translate(175.601281, 198.978643) rotate(-12.340000) translate(-175.601281, -198.978643) " points="173.962266 190.824955 177.242002 190.824611 177.240295 207.132332 173.960559 207.132676"></polygon>
                    <polygon id="Rectangle" transform="translate(187.921191, 194.749108) rotate(-1.670000) translate(-187.921191, -194.749108) " points="186.281502 184.987248 189.561165 184.9872 189.560879 204.510967 186.281217 204.511015"></polygon>
                    <polygon id="Rectangle" transform="translate(200.912845, 195.772849) rotate(-82.930000) translate(-200.912845, -195.772849) " points="192.656421 194.133511 209.169471 194.1325 209.16927 197.412186 192.65622 197.413197"></polygon>
                    <polygon id="Rectangle" transform="translate(213.891311, 198.323975) rotate(-72.860000) translate(-213.891311, -198.323975) " points="206.878055 196.685064 220.905031 196.683082 220.904567 199.962886 206.877592 199.964868"></polygon>
                    <polygon id="Rectangle" transform="translate(227.983717, 205.078815) rotate(-52.020000) translate(-227.983717, -205.078815) " points="222.160903 203.44009 233.807329 203.437256 233.806531 206.71754 222.160105 206.720374"></polygon>
                    <polygon id="Rectangle" transform="translate(237.328329, 213.358278) rotate(-44.380000) translate(-237.328329, -213.358278) " points="232.196861 211.719314 242.46062 211.71674 242.459797 214.997241 232.196039 214.999815"></polygon>
                    <polygon id="Rectangle" transform="translate(246.220533, 222.963480) rotate(-28.760000) translate(-246.220533, -222.963480) " points="242.100327 221.323889 250.341433 221.322145 250.340739 224.603071 242.099633 224.604815"></polygon>
                    <path d="M204,179 L188,179 L196,160 L204,179 Z M190.580515,177.265217 L201.423523,177.265217 L196,164.37 L190.580515,177.265217 Z" id="Shape"></path>
                    <path d="M227,185 L211,185 L219,166 L227,185 Z M213.580515,183.254723 L224.40737,183.254723 L218.983847,170.373507 L213.580515,183.254723 Z" id="Shape"></path>
                    <path d="M181,185 L165,185 L173,166 L181,185 Z M167.576477,183.254723 L178.423523,183.254723 L173,170.373507 L167.576477,183.254723 Z" id="Shape"></path>
                    <path d="M192,287 C155.607477,287 126,258.288154 126,222.997957 C126,187.70776 155.607477,159 192,159 C228.392523,159 258,187.70776 258,222.997957 C258,258.288154 228.400748,287 192,287 Z M192,160.716092 C156.557383,160.716092 127.722991,188.655696 127.722991,222.997957 C127.722991,257.340218 156.565607,285.283908 192,285.283908 C227.434393,285.283908 256.272897,257.344304 256.272897,222.997957 C256.272897,188.65161 227.450841,160.716092 192,160.716092 Z" id="Shape"></path>
                    <path d="M191.5,292 C152.074267,292 120,260.825339 120,222.5 C120,184.174661 152.070155,153 191.5,153 C230.929845,153 263,184.178757 263,222.5 C263,260.821243 230.933956,292 191.5,292 Z M191.5,154.720094 C153.028148,154.720094 121.726855,185.128904 121.726855,222.5 C121.726855,259.871096 153.028148,290.279906 191.5,290.279906 C229.971852,290.279906 261.273145,259.875192 261.273145,222.5 C261.273145,185.124808 229.980075,154.720094 191.5,154.720094 Z" id="Shape"></path>
                    <path d="M194.121329,452 L175.120545,298.38099 L126.242637,386.62296 L148.257792,286.630442 L41.9633119,379.55129 L126.103197,261.926795 L39.4943993,267.545551 L114.185157,239.45177 L0,218.413243 L114.833144,209.843511 L32.8094698,175.067966 L125.963757,183.276521 L17.0035077,62.6600078 L147.970709,159.053074 L109.501606,45.1470548 L173.541589,145.742902 L192.870468,0 L213.417399,145.775736 L277.473787,45.1470548 L239.021089,159.053074 L369.98829,62.6600078 L261.036243,183.280625 L354.19053,175.07207 L272.166856,209.847615 L387,218.417347 L272.802539,239.45177 L347.497398,267.545551 L260.884499,261.926795 L345.028486,379.55129 L238.734006,286.630442 L260.74916,386.62296 L211.867151,298.38099 L194.121329,452 Z M176.199156,292.897675 L194.063913,437.491378 L210.776236,292.86484 L256.524941,375.442908 L235.924695,281.890002 L335.005193,368.490261 L257.369785,259.973159 L336.03459,265.074776 L266.388288,238.868963 L373.548117,219.131491 L264.961076,211.029647 L343.461834,177.743955 L256.816125,185.38612 L357.295126,74.160194 L235.641713,163.682699 L271.297405,58.0673211 L212.363395,150.626992 L192.927885,12.7232609 L174.644808,150.66393 L115.690292,58.0673211 L151.37059,163.682699 L29.6925702,74.1396726 L130.171571,185.38612 L43.5299641,177.743955 L122.030722,211.029647 L13.4436803,219.1397 L120.599409,238.868963 L50.9572078,265.074776 L129.622013,259.973159 L51.9866049,368.502574 L151.063001,281.902315 L130.466857,375.442908 L176.199156,292.897675 Z" id="Shape"></path>
                    <path d="M148.165207,35 C148.165207,35 154.161002,61.1810483 160.160827,87.3497471 L164.552908,106.573882 C165.193588,109.657153 165.862474,112.625162 166.414506,115.457325 C166.966538,118.289489 167.510512,120.961109 168.006132,123.431019 C168.501752,125.900929 168.900666,128.177363 169.283462,130.186223 C169.666258,132.195084 169.980554,133.952836 170.226349,135.405967 L171,139.962951 L170.834793,140 C170.834793,140 170.399615,138.353393 169.646111,135.537696 C169.243167,134.117497 168.840224,132.38856 168.336545,130.400282 C167.832866,128.412005 167.296952,126.172619 166.692537,123.727408 C166.088122,121.282197 165.483707,118.622927 164.82691,115.815462 C164.170112,113.007998 163.525403,110.052339 162.832341,106.964951 C161.55904,100.790175 160.197092,94.203748 158.839173,87.6502529 L148,35.0370487 L148.165207,35 Z" id="Path"></path>
                    <path d="M166.172535,45 C166.172535,45 168.25939,64.4661974 170.190141,83.9446867 C170.687207,88.8163576 171.184272,93.6839313 171.648474,98.2483059 C171.821009,100.534591 172.034624,102.755319 172.157864,104.844934 C172.281103,106.934549 172.412559,108.942218 172.527582,110.757315 C172.642606,112.572412 172.700117,114.272785 172.774061,115.764196 C172.848005,117.255608 172.901408,118.554447 172.921948,119.627935 C172.971244,121.770815 173,123 173,123 L172.827465,123 L172.318075,119.668908 C172.153756,118.607711 171.977113,117.317067 171.792254,115.837947 C171.607394,114.358828 171.381455,112.691233 171.163732,110.863844 C170.946009,109.036455 170.752934,107.065662 170.506455,104.976047 C170.259977,102.886432 170.095657,100.673898 169.857394,98.3917109 C169.524648,93.8150444 169.171362,88.9351789 168.813967,84.0512161 C167.330986,64.531754 166,45 166,45 L166.172535,45 Z" id="Path"></path>
                    <path d="M136.172333,53 C136.172333,53 143.484174,71.1009954 150.6483,89.255061 C152.457796,93.7864333 154.263189,98.3178056 155.953693,102.57158 C156.745604,104.714797 157.549824,106.772285 158.239156,108.756291 L160.212778,114.324572 C160.828253,116.04731 161.332943,117.651661 161.813013,119.055978 C162.293083,120.460295 162.695193,121.70132 163.007034,122.730064 L164,125.938765 L163.839977,126 L162.440797,122.942344 C161.997655,121.970753 161.476553,120.782798 160.889801,119.415222 C160.303048,118.047646 159.621923,116.512694 158.932591,114.818533 C158.243259,113.124371 157.488277,111.287328 156.692263,109.348227 C155.896249,107.409126 155.116647,105.339392 154.275498,103.224751 C152.708089,98.9260709 151.033998,94.3457108 149.3517,89.7531037 C142.606096,71.4398278 136,53.0734817 136,53.0734817 L136.172333,53 Z" id="Path"></path>
                    <path d="M238,35.0370487 L227.177891,87.6502529 C225.818086,94.2366801 224.462305,100.802525 223.191009,106.964951 C222.495015,110.035873 221.871436,113.012114 221.179465,115.815462 C220.487493,118.618811 219.896099,121.278081 219.316775,123.727408 L217.679377,130.400282 C217.18856,132.38856 216.750044,134.105148 216.371873,135.537696 C215.615533,138.373976 215.164947,140 215.164947,140 L215,139.962951 L215.772433,135.405967 C216.013818,133.952836 216.335666,132.1992 216.713836,130.186223 C217.092006,128.173247 217.518454,125.905046 217.989155,123.431019 C218.459857,120.956992 219.015043,118.285373 219.598391,115.457325 C220.181739,112.629278 220.805317,109.657153 221.457058,106.573882 L225.842225,87.3497471 C231.844674,61.1810483 237.835053,35 237.835053,35 L238,35.0370487 Z" id="Path"></path>
                    <path d="M220,45 C220,45 218.672343,64.531754 217.188491,84.0512161 C216.830887,88.9351789 216.473282,93.8150444 216.140341,98.3917109 C215.914269,100.673898 215.729301,102.898724 215.495009,104.976047 C215.260716,107.05337 215.038755,109.040553 214.833235,110.863844 C214.627716,112.687136 214.389313,114.358828 214.208456,115.837947 C214.027598,117.317067 213.842631,118.607711 213.678215,119.668908 C213.357604,121.787204 213.168526,123 213.168526,123 L213,123 C213,123 213.024662,121.770815 213.073987,119.627935 C213.098649,118.554447 213.147974,117.255608 213.221961,115.764196 C213.295948,114.272785 213.349383,112.588801 213.468585,110.757315 C213.587786,108.925829 213.711098,106.942743 213.842631,104.844934 C213.974163,102.747124 214.175573,100.534591 214.348209,98.2483059 C214.816794,93.6839313 215.314151,88.8245522 215.811509,83.9446867 C217.743394,64.4661974 219.827363,45.0204864 219.827363,45.0204864 L220,45 Z" id="Path"></path>
                    <path d="M250,53.0734817 C250,53.0734817 243.393166,71.4234985 236.659041,89.7531037 C234.983722,94.3375461 233.312509,98.9179063 231.731632,103.224751 C230.910397,105.351639 230.122012,107.425456 229.313096,109.348227 C228.504179,111.270999 227.769174,113.124371 227.071125,114.818533 C226.373075,116.512694 225.695557,118.043563 225.11248,119.415222 C224.529403,120.786881 224.007919,121.970753 223.560346,122.942344 L222.160141,126 L222,125.938765 L222.993694,122.730064 C223.309869,121.709484 223.712275,120.476625 224.188591,119.055978 C224.664907,117.635332 225.178179,116.04731 225.794105,114.324572 C226.410031,112.601834 227.067019,110.732133 227.765068,108.756291 C228.463118,106.78045 229.263822,104.714797 230.052207,102.57158 L235.36149,89.255061 C242.534976,71.1009954 249.852178,53 249.852178,53 L250,53.0734817 Z" id="Path"></path>
                    <path d="M94.1404367,81 L119.067942,115.603417 C122.178201,119.930899 125.28846,124.258381 128.208716,128.314625 C129.617213,130.369459 131.017449,132.34621 132.277249,134.261316 L135.858383,139.640874 C136.973615,141.284741 137.923628,142.858745 138.828205,144.219045 C139.732783,145.579346 140.480401,146.779369 141.079322,147.773909 L143,150.901368 L142.859563,151 L140.579533,148.123231 C139.852567,147.206775 138.989294,146.068397 138.014499,144.78207 C137.039703,143.495744 135.907949,142.036811 134.73076,140.421711 L130.914187,135.21476 C129.551125,133.373628 128.183933,131.380438 126.730001,129.350261 L117.932058,116.400693 L94,81.1068514 L94.1404367,81 Z" id="Path"></path>
                    <path d="M98.1139866,112 C98.1139866,112 108.840942,121.446083 119.462053,130.99484 C122.132597,133.364575 124.819424,135.721988 127.290491,137.976727 C128.511777,139.134899 129.700494,140.223252 130.783367,141.311605 L133.856935,144.3631 C134.809538,145.299495 135.644083,146.20714 136.40535,146.987468 C137.166618,147.767797 137.81797,148.461879 138.343123,149.040965 C139.409712,150.190922 140,150.872683 140,150.872683 L139.881942,151 C139.881942,151 139.161384,150.466091 137.936028,149.488627 C137.317243,149.008109 136.580401,148.408488 135.745856,147.710299 C134.911311,147.01211 133.942425,146.24821 132.9369,145.365206 L129.68014,142.527275 C128.511777,141.529275 127.339343,140.416281 126.093632,139.295072 C123.651061,136.995156 121.110788,134.48989 118.542018,132.00516 C108.214016,122.123736 98,112.127317 98,112.127317 L98.1139866,112 Z" id="Path"></path>
                    <path d="M118.156224,96 C118.156224,96 124.709423,108.813624 131.122842,121.701386 C132.767308,124.909941 134.411774,128.114376 135.871238,131.141703 C136.574248,132.673901 137.297813,134.136079 137.906265,135.561188 L139.657622,139.552317 C140.204407,140.78796 140.648413,141.945347 141.075974,142.954455 C141.503536,143.963564 141.852985,144.857347 142.128433,145.598733 C142.699885,147.069149 143,147.925861 143,147.925861 L142.843776,148 C142.843776,148 142.36688,147.229782 141.581648,145.862337 C141.170531,145.182733 140.710081,144.346614 140.183851,143.39105 C139.657622,142.435485 139.040947,141.331644 138.424272,140.153663 L136.430357,136.277861 C135.70268,134.910416 135.020227,133.431762 134.267884,131.920158 C132.837198,128.868119 131.390067,125.577188 129.893603,122.298614 C123.866634,109.221386 118,96.0782574 118,96.0782574 L118.156224,96 Z" id="Path"></path>
                    <path d="M293,81.0986436 L269.080138,116.39663 L260.285161,129.347719 C258.831718,131.378134 257.464987,133.371558 256.102385,135.212906 L252.287099,140.420469 C251.110306,142.035758 249.978933,143.482532 248.983821,144.78134 C247.988708,146.080148 247.146372,147.20633 246.419651,148.122894 L244.140389,151 L244,150.901356 L245.92003,147.773531 C246.527008,146.778874 247.286762,145.58282 248.170388,144.218249 C249.054015,142.853679 250.024353,141.300041 251.13508,139.63954 C252.245808,137.979038 253.443246,136.170571 254.715008,134.267571 C255.98677,132.36457 257.374147,130.383477 258.782169,128.320181 L267.940507,115.60748 L292.859611,81 L293,81.0986436 Z" id="Path"></path>
                    <path d="M290,112.12321 C290,112.12321 279.784004,122.119629 269.458071,132.00516 C266.892874,134.469356 264.343965,136.995156 261.909064,139.295072 C260.663112,140.416281 259.490451,141.529275 258.321861,142.527275 L255.064469,145.365206 C254.054678,146.24821 253.089675,147.008003 252.254968,147.710299 C251.420262,148.412595 250.683277,149.008109 250.064372,149.488627 C248.84285,150.466091 248.11808,151 248.11808,151 L248,150.872683 C248,150.872683 248.590402,150.190922 249.657198,149.040965 C250.182453,148.457772 250.833931,147.767797 251.595347,146.987468 C252.356762,146.20714 253.187397,145.299495 254.144256,144.3631 L257.21842,141.311605 C258.301503,140.223252 259.502666,139.134899 260.711973,137.976727 C263.183519,135.721988 265.870868,133.364575 268.541929,130.99484 C279.165099,121.437869 289.894135,112 289.894135,112 L290,112.12321 Z" id="Path"></path>
                    <path d="M269,96.0823762 C269,96.0823762 263.133366,109.229624 257.122842,122.306851 C255.638711,125.601901 254.179247,128.876356 252.748561,131.928396 C251.996218,133.44 251.313764,134.918653 250.586088,136.286099 L248.575728,140.153663 C247.959053,141.352238 247.342378,142.427248 246.816149,143.39105 C246.289919,144.354851 245.821247,145.19097 245.418352,145.862337 C244.63312,147.229782 244.156224,148 244.156224,148 L244,147.925861 C244,147.925861 244.296004,147.069149 244.871567,145.598733 C245.147015,144.857347 245.504687,143.951208 245.924026,142.954455 C246.343365,141.957703 246.795593,140.783842 247.342378,139.552317 L249.093735,135.561188 C249.702187,134.136079 250.425752,132.67802 251.149318,131.141703 C252.629337,128.114376 254.273804,124.909941 255.897714,121.701386 C262.311133,108.813624 268.864332,96 268.864332,96 L269,96.0823762 Z" id="Path"></path>
                    <path d="M122.909992,182 L70.6808812,156.618901 L51.5092054,147.288098 C48.4734854,145.745987 45.5236821,144.294346 42.7579858,142.846817 L34.9559402,138.792092 C25.3128245,133.729854 19,130.156267 19,130.156267 L19.0777341,130 C19.0777341,130 25.7383163,132.907394 35.581904,137.566627 L43.5107789,141.358165 C46.3296617,142.694662 49.2630999,144.183314 52.3192762,145.676078 L71.306845,155.381099 L123,181.843733 L122.909992,182 Z" id="Path"></path>
                    <path d="M33.0369857,163 L73.1417784,170.827637 L87.8620743,173.73291 C90.2003904,174.251709 92.4688447,174.708252 94.6016849,175.2229 L100.630349,176.625732 C102.49607,177.040771 104.193301,177.518066 105.705604,177.87085 C107.217907,178.223633 108.528844,178.588867 109.609647,178.887695 L113,179.829834 L112.967124,180 L109.486362,179.489502 C108.376791,179.327637 107.02065,179.111816 105.504238,178.846191 C103.987826,178.580566 102.216623,178.314941 100.350902,177.958008 L94.2688139,176.824951 C92.1072071,176.434814 89.8469718,175.936768 87.5004366,175.471924 L72.8623311,172.172363 L33,163.149414 L33.0369857,163 Z" id="Path"></path>
                    <path d="M51.1022299,124 L83.406875,148.951368 L95.2655421,158.126979 C97.1220369,159.638305 98.9458182,161.062678 100.622388,162.478769 L105.386301,166.441341 C106.858412,167.662824 108.171043,168.834619 109.352821,169.84907 C110.534598,170.863522 111.556897,171.753755 112.387004,172.507348 L115,174.86336 L114.893681,175 L112.031244,172.987659 C111.115264,172.345863 110.015271,171.555005 108.759888,170.627507 C107.504505,169.700008 106.073286,168.689697 104.552105,167.526183 L99.6450706,163.799627 C97.8908057,162.48291 96.0956488,161.025412 94.2064405,159.559633 L82.6053926,150.03621 L51,124.13664 L51.1022299,124 Z" id="Path"></path>
                    <path d="M265,181.84372 L316.695213,155.378994 L335.682035,145.677317 C338.738091,144.184435 341.671413,142.695666 344.490185,141.359064 L352.418748,137.567226 C362.261949,132.907624 368.922269,130 368.922269,130 L369,130.15628 C369,130.15628 362.671059,133.730149 353.044687,138.792787 L345.242949,142.847833 C342.477361,144.295476 339.515401,145.747232 336.492073,147.289465 L317.317061,156.616893 L265.077731,182 L265,181.84372 Z" id="Path"></path>
                    <path d="M355,163.165854 L315.135621,172.18 L300.513203,175.476341 C298.166547,175.940732 295.906195,176.438293 293.744478,176.828049 L287.662077,177.96 C285.779821,178.316585 284.041406,178.581951 282.508476,178.847317 C280.975547,179.112683 279.631665,179.328293 278.526148,179.49 L275.032878,180 L275,179.83 L278.390527,178.88878 C279.471386,178.590244 280.78239,178.250244 282.29477,177.872927 C283.807151,177.49561 285.504469,177.043659 287.370287,176.629024 L293.395151,175.210976 C295.5281,174.696829 297.796671,174.240732 300.135107,173.722439 L314.856159,170.82 L354.963012,163 L355,163.165854 Z" id="Path"></path>
                    <path d="M337,124.124219 L305.407083,150.03621 L293.800102,159.559633 C291.909928,161.025412 290.117944,162.48291 288.358691,163.799627 L283.449147,167.526183 C281.927188,168.689697 280.495237,169.704149 279.243304,170.627507 C277.99137,171.550865 276.890814,172.345863 275.970274,172.987659 L273.106373,175 L273,174.86336 L275.614332,172.507348 C276.43259,171.753755 277.467685,170.8511 278.650067,169.84907 C279.832449,168.847041 281.145752,167.662824 282.618615,166.441341 L287.368599,162.478769 C289.046027,161.062678 290.870741,159.638305 292.728185,158.126979 L304.592917,148.951368 L336.914083,124 L337,124.124219 Z" id="Path"></path>
                    <path d="M103.987738,208 L53.3855524,199.6751 L34.8082558,196.603196 C31.8571429,196.051931 28.9918656,195.568575 26.290085,195.029294 L18.6752327,193.523302 L12.2498179,192.201065 C10.3369081,191.801598 8.66924322,191.450067 7.30404694,191.138482 L3,190.163782 L3.03269931,190 L7.39397005,190.559254 C8.78777823,190.73502 10.4758802,190.958722 12.409227,191.258322 L18.9000405,192.213049 L26.5680291,193.411451 C29.2902469,193.830892 32.1473493,194.354194 35.1107244,194.849534 L53.6144476,198.3249 L104,207.82024 L103.987738,208 Z" id="Path"></path>
                    <path d="M11,209.795986 C11,209.795986 28.25,209.066805 45.5,208.504546 L58.1582143,208.043317 C60.1789286,208.043317 62.1298214,207.977427 63.98625,208.008176 L69.2105357,208.06528 C70.82875,208.06528 72.3114286,208.153133 73.6257143,208.188274 C74.94,208.223416 76.09,208.267342 77.0305357,208.324447 C78.9198214,208.416692 80,208.504546 80,208.504546 L80,208.689037 C80,208.689037 78.9198214,208.812031 77.03875,208.974559 C76.0941071,209.066805 74.9523214,209.154658 73.6380357,209.242511 C72.32375,209.330364 70.8451786,209.457751 69.2310714,209.528034 L64.0108929,209.778415 C62.1585714,209.883839 60.2035714,209.897017 58.1828571,209.962906 L45.5123214,209.962906 C28.2623214,210.046367 11.0123214,209.962906 11.0123214,209.962906 L11,209.795986 Z" id="Path"></path>
                    <path d="M17.0244208,178 C17.0244208,178 33.3822793,183.094868 49.6912962,188.339708 L61.6819036,192.151486 C63.5785848,192.818027 65.4264245,193.40125 67.1480902,194.063624 L72.032248,195.859118 C73.5422668,196.404848 74.9098309,196.971407 76.1308704,197.437985 C77.3519098,197.904564 78.410144,198.333649 79.2730119,198.687749 C81.0150282,199.395948 82,199.833365 82,199.833365 L81.9470883,200 C81.9470883,200 80.9010645,199.754213 79.0979962,199.270971 C78.1903569,199.041848 77.0914214,198.737739 75.841891,198.379474 C74.5923607,198.021208 73.1596744,197.637947 71.6252348,197.163037 L66.6637445,195.650824 C64.9013776,195.121757 63.0657483,194.484378 61.1568566,193.871994 L49.2964934,189.660292 C33.1217909,183.9822 17,178.154137 17,178.154137 L17.0244208,178 Z" id="Path"></path>
                    <path d="M104.995915,240.161008 L54.540851,244.144031 L36.0149248,245.5931 C33.0532276,245.769441 30.193658,245.976451 27.4770668,246.106791 L19.8215904,246.490142 L13.3467077,246.750821 C11.4226258,246.827492 9.7395648,246.881161 8.35471607,246.911829 L4,247 L4,246.842826 L8.32612037,246.344469 C9.7027989,246.187295 11.3736046,246.014786 13.2936014,245.830778 L19.7398884,245.213582 L27.3749393,244.565717 C30.0833603,244.320372 32.9429299,244.147864 35.900542,243.921687 L54.459149,242.859803 L105,240 L104.995915,240.161008 Z" id="Path"></path>
                    <path d="M95,238 C95,238 76.9816306,237.537046 58.9714253,236.847244 L45.745436,236.412067 C43.6390747,236.27318 41.598027,236.194478 39.6671958,236.023185 L34.2257626,235.583378 C32.5398571,235.453751 30.996825,235.26394 29.6293231,235.120424 C28.2618211,234.976908 27.0657671,234.85654 26.0860642,234.726913 L23,234.324142 L23,234.129702 L26.1064747,234.04174 C27.0902597,234.013963 28.2903957,234.004704 29.6619798,234.009333 C31.0335639,234.013963 32.5888423,233.986186 34.2788298,234.009333 L39.7325094,234.125072 C41.6674226,234.152849 43.7084703,234.277847 45.8189137,234.356549 L59.0244926,235.282458 C77.0142873,236.449103 95,237.791671 95,237.791671 L95,238 Z" id="Path"></path>
                    <path d="M96,243.175732 C96,243.175732 79.8300897,246.757322 63.6355365,250.1841 L51.7247567,252.74477 C49.819032,253.09205 47.983129,253.476987 46.2252622,253.757322 L41.2966637,254.594142 C39.7687982,254.857741 38.3518261,255.012552 37.107355,255.225941 C35.8628839,255.439331 34.7662707,255.560669 33.8668015,255.665272 C32.067863,255.899582 31.0328573,256 31.0328573,256 L31,255.828452 C31,255.828452 31.9980412,255.527197 33.7518008,255.058577 C34.6266271,254.811715 35.6903829,254.539749 36.9184254,254.221757 C38.1464678,253.903766 39.5223683,253.548117 41.0255908,253.209205 L45.9131177,252.096234 C47.6463415,251.677824 49.4904587,251.34728 51.3879692,250.945607 L63.3562492,248.799163 C79.6411601,245.820084 95.9548212,243 95.9548212,243 L96,243.175732 Z" id="Path"></path>
                    <path d="M119,266.127223 L72.8511681,295.080711 L55.9006315,305.697674 C53.1652166,307.339261 50.5612331,308.980848 48.0147507,310.44186 L40.9092435,314.623803 L34.8798304,318.099863 L30.1975887,320.742818 L26.0903591,323 L26,322.852257 L29.8772247,320.225718 L34.3623195,317.25855 L40.2069072,313.458276 L47.1645542,309.030096 C49.6288919,307.450068 52.2657333,305.857729 54.9682904,304.166895 L72.1365102,293.906977 L118.913748,266 L119,266.127223 Z" id="Path"></path>
                    <path d="M109,266.165665 C109,266.165665 91.4168637,274.225251 73.7845897,282.144021 L60.8326893,287.996126 C58.7443336,288.874148 56.7378742,289.764596 54.813311,290.534937 L49.387681,292.738277 C47.7129016,293.421643 46.1486822,293.980762 44.7769191,294.531597 C43.405156,295.082432 42.2012804,295.521443 41.2021455,295.877622 L38.0696119,297 L38,296.838477 L40.9646462,295.314362 C41.9064537,294.825651 43.0611915,294.25825 44.3879116,293.616299 C45.7146318,292.974349 47.2010497,292.224716 48.8512602,291.4668 L54.1745199,288.98183 C56.05404,288.095524 58.0686891,287.23821 60.1365707,286.310488 L73.2399792,280.843554 C91.0524252,273.363794 108.934483,266 108.934483,266 L109,266.165665 Z" id="Path"></path>
                    <path d="M93,268.171071 C93,268.171071 78.5818054,271.50904 64.1308886,274.688456 L53.528914,277.066759 C51.8273625,277.388039 50.187165,277.742698 48.6205924,277.997218 L44.203103,278.748261 C42.8369535,278.986092 41.5730606,279.140473 40.4564175,279.315716 C39.3397743,279.49096 38.3662906,279.616134 37.5605078,279.707928 C35.9530324,279.912378 35.0286319,280 35.0286319,280 L35,279.828929 C35,279.828929 35.8834979,279.545202 37.4541608,279.102921 C38.235402,278.869263 39.1843441,278.61057 40.2764457,278.331015 C41.3685472,278.05146 42.5956276,277.700974 43.9576869,277.383866 L48.3179126,276.344924 C49.8599436,275.965229 51.5042313,275.648122 53.1976023,275.276773 L63.8813822,273.311544 C78.4181946,270.578581 92.9877292,268 92.9877292,268 L93,268.171071 Z" id="Path"></path>
                    <path d="M114,273.136691 C114,273.136691 99.2652584,285.898683 84.4314319,298.519841 C80.736393,301.692735 77.0372256,304.865628 73.5692562,307.835556 C71.785729,309.289454 70.134315,310.722641 68.482901,312.010852 L63.8589417,315.672521 C62.4304686,316.811615 61.0763091,317.809875 59.9038051,318.717008 C58.7313012,319.624141 57.6909103,320.398724 56.8280465,321.028332 L54.1114704,323 L54,322.867451 L56.4358357,320.556126 C57.2120003,319.818822 58.1656919,318.944826 59.2680107,317.950708 C60.3703296,316.95659 61.600633,315.809212 62.9836923,314.612128 L67.425996,310.726783 C68.9907108,309.33916 70.7040528,307.93911 72.4421661,306.46036 L83.5892108,297.467733 C98.6666208,285.173805 113.896787,273 113.896787,273 L114,273.136691 Z" id="Path"></path>
                    <path d="M106,284.123967 C106,284.123967 97.0528027,294.603306 88.0060538,304.971074 C85.7619955,307.578512 83.5345291,310.202479 81.3983184,312.619835 C80.2949552,313.797521 79.2662556,314.966942 78.2292601,316.024793 L75.3256726,319.020661 C74.4338565,319.954545 73.5669283,320.764463 72.8368834,321.5 C72.1068386,322.235537 71.4307175,322.876033 70.8748879,323.38843 C69.7798206,324.42562 69.1285874,325 69.1285874,325 L69,324.884298 C69,324.884298 69.5019058,324.177686 70.4186099,322.979339 C70.8707399,322.371901 71.4348655,321.652893 72.0778027,320.834711 C72.7207399,320.016529 73.4590807,319.078512 74.2928251,318.090909 L76.9724215,314.900826 C77.9140135,313.760331 78.9758969,312.615702 80.0336323,311.400826 C82.2154709,309.024793 84.5964126,306.541322 86.9566143,304.03719 C96.3393498,293.966942 105.838229,284 105.838229,284 L106,284.123967 Z" id="Path"></path>
                    <path d="M143,294.090091 L114.09278,339.876744 L103.463623,356.666412 C101.717988,359.315903 100.06638,361.899874 98.4352134,364.307758 C96.8040466,366.715642 95.2750831,369.00477 93.8605876,371.113716 L89.9359756,376.846773 L86.8739606,381.224372 L84.1430848,385 L84,384.905814 C84,384.905814 84.8503326,383.439789 86.3465909,380.880389 L89.0897312,376.293943 L92.6954684,370.372514 L97.0288941,363.410944 C98.5578575,360.933444 100.24217,358.369949 101.934659,355.691792 L112.923573,339.135541 L142.856915,294 L143,294.090091 Z" id="Path"></path>
                    <path d="M139,311.03271 C139,311.03271 132.645846,328.679907 126.147373,346.228972 C124.535125,350.628505 122.927001,355.028037 121.413714,359.149533 C120.589035,361.193925 119.863317,363.181075 119.083995,365.037383 L116.915089,370.279206 C116.251222,371.91472 115.583232,373.374416 115.018326,374.686916 C114.453421,375.999416 113.950367,377.140187 113.51741,378.07243 C112.65562,379.936916 112.160812,381 112.160812,381 L112,380.938668 C112,380.938668 112.346365,379.818341 112.948381,377.855724 C113.249389,376.874416 113.636988,375.692757 114.094685,374.339369 C114.552382,372.985981 115.038943,371.448598 115.632712,369.796729 C116.226481,368.14486 116.869731,366.345794 117.529475,364.448598 C118.189218,362.551402 118.96854,360.57243 119.739615,358.528037 L124.860874,345.754673 C131.779933,328.340537 138.847434,311 138.847434,311 L139,311.03271 Z" id="Path"></path>
                    <path d="M129,307.132326 C129,307.132326 117.301426,320.36493 105.488798,333.485885 L96.8452138,343.153956 C95.4236253,344.65503 94.0794297,346.139563 92.7474542,347.487634 L89.0407332,351.316819 C87.892057,352.507753 86.7881874,353.553956 85.8391039,354.50505 C84.8900204,355.456143 84.0468432,356.270775 83.3380855,356.932406 L81.1221996,359 L81,358.88008 L82.898167,356.502346 C83.5050916,355.741471 84.2545825,354.84827 85.1262729,353.810338 C85.9979633,352.772406 86.9551935,351.602147 88.0509165,350.36159 L91.5702648,346.338052 C92.8126273,344.899006 94.1812627,343.443419 95.5661914,341.905129 L104.527495,332.526521 C116.661914,319.707435 128.910387,307 128.910387,307 L129,307.132326 Z" id="Path"></path>
                    <path d="M172,312.04916 C172,312.04916 166.588727,334.109585 161.181636,356.174107 C159.822545,361.68819 158.467636,367.202272 157.196364,372.372236 C156.498,374.940831 155.874909,377.435687 155.197455,379.783064 C154.52,382.130441 153.905273,384.354918 153.328182,386.40324 C152.751091,388.451562 152.165636,390.319631 151.680545,391.982869 C151.195455,393.646106 150.748,395.088124 150.367455,396.272054 L149.171455,400 L149,399.954937 C149,399.954937 149.280182,398.562078 149.765273,396.124575 C150.007818,394.895582 150.325636,393.428984 150.706182,391.741167 C151.086727,390.053349 151.479818,388.140217 151.960727,386.067315 C152.441636,383.994414 152.985273,381.749453 153.545636,379.377496 C154.106,377.00554 154.762545,374.510684 155.406545,371.929798 C156.807455,366.792607 158.304545,361.311298 159.801636,355.834086 L171.811818,312 L172,312.04916 Z" id="Path"></path>
                    <path d="M174,322.016496 C174,322.016496 173.480064,341.027837 172.786816,360.035053 C172.63128,364.785827 172.4713,369.520104 172.342427,373.994574 C172.204666,376.221499 172.120232,378.374193 171.951364,380.411417 C171.782496,382.448641 171.649179,384.374518 171.506974,386.151934 C171.36477,387.92935 171.191458,389.562429 171.062585,391.005806 C170.933712,392.449183 170.800395,393.706984 170.671522,394.742091 C170.422664,396.804059 170.276015,398 170.276015,398 L170.089372,398 C170.089372,398 170.062708,396.808183 170.013825,394.725596 C170.013825,393.68224 169.982718,392.416192 170.013825,390.968691 C170.044933,389.521189 170.013825,387.883987 170.044933,386.098323 C170.07604,384.312659 170.124923,382.386782 170.173806,380.324814 C170.222689,378.262847 170.329342,376.130772 170.409332,373.903847 C170.702629,369.454121 171.013702,364.711596 171.320331,359.964947 C172.497963,340.994845 173.84002,322 173.84002,322 L174,322.016496 Z" id="Path"></path>
                    <path d="M165,322.061368 C165,322.061368 158.896714,336.200468 152.622535,350.290473 L148.061346,360.645237 C147.280125,362.281707 146.568075,363.864991 145.815336,365.337814 C145.062598,366.810637 144.37903,368.201636 143.732081,369.510812 C143.085133,370.819988 142.446322,371.965517 141.909233,373.008767 C141.372144,374.052016 140.879812,374.952075 140.46072,375.688486 C139.646948,377.1654 139.154617,378 139.154617,378 L139,377.926359 C139,377.926359 139.317371,377.009936 139.915493,375.434833 C140.208451,374.616598 140.578717,373.683811 141.022222,372.595558 C141.465728,371.507306 141.929577,370.263589 142.503286,368.938048 C143.076995,367.612507 143.679186,366.168323 144.330203,364.646406 C144.981221,363.124489 145.717684,361.541204 146.450078,359.892461 C148.024726,356.619521 149.705164,353.174752 151.381534,349.709527 C158.042254,335.824079 164.845383,322 164.845383,322 L165,322.061368 Z" id="Path"></path>
                    <path d="M280,207.836073 L330.379436,198.332297 L348.880913,194.853843 C351.843928,194.358063 354.696597,193.834296 357.422571,193.414482 L365.089629,192.215016 L371.579654,191.25944 C373.512767,190.971568 375.200664,190.735673 376.594303,190.559751 L380.971392,190 L381,190.163927 L376.700562,191.139494 C375.331445,191.451355 373.668069,191.807197 371.755392,192.203021 L365.330757,193.526433 L357.712742,195.01777 C355.015377,195.55753 352.150447,196.041315 349.195606,196.59307 L330.620564,199.667703 L280.028608,208 L280,207.836073 Z" id="Path"></path>
                    <path d="M373,209.963245 C373,209.963245 355.751027,210.045944 338.502053,209.963245 L325.836379,209.963245 C323.815785,209.897956 321.860901,209.884898 320.00869,209.780436 L314.768288,209.514927 C313.154277,209.445285 311.671686,209.314707 310.361586,209.232008 C309.051485,209.149309 307.897447,209.057904 306.961074,208.9665 C305.076007,208.805453 304,208.683581 304,208.683581 L304,208.500772 C304,208.500772 305.080114,208.41372 306.969288,208.322315 C307.913874,208.265731 309.059699,208.222205 310.373906,208.187384 C311.688114,208.152564 313.170704,208.074217 314.788822,208.065512 L320.012797,208.008928 C321.865008,207.97846 323.819892,208.035043 325.840486,208.043749 L338.502053,208.500772 C355.751027,209.057904 373,209.780436 373,209.780436 L373,209.963245 Z" id="Path"></path>
                    <path d="M367,178.154137 C367,178.154137 350.874139,183.986366 334.703507,189.660292 L322.843143,193.871994 C320.930182,194.484378 319.098622,195.121757 317.332185,195.650824 L312.374765,197.163037 C310.840326,197.637947 309.411709,197.996213 308.158109,198.379474 C306.904508,198.762734 305.805573,199.041848 304.902004,199.270971 C303.086725,199.754213 302.052912,200 302.052912,200 L302,199.833365 C302,199.833365 302.984972,199.395948 304.722918,198.687749 C305.589856,198.321151 306.64809,197.896232 307.86913,197.437985 C309.090169,196.979739 310.453663,196.404848 311.963682,195.859118 L316.84784,194.063624 C318.573575,193.417913 320.421415,192.813861 322.314026,192.151486 L334.304634,188.339708 C350.613651,183.094868 366.971509,178 366.971509,178 L367,178.154137 Z" id="Path"></path>
                    <path d="M279.012254,240 L329.549017,242.859803 L348.106123,243.921687 C351.063496,244.147864 353.922834,244.305038 356.631036,244.565717 L364.26547,245.213582 L370.711235,245.830778 C372.631077,246.014786 374.301747,246.187295 375.678314,246.344469 L380,246.842826 L380,247 L375.645636,246.911829 C374.260899,246.881161 372.577975,246.827492 370.649964,246.750821 L364.179689,246.490142 L356.524832,246.106791 C353.808461,245.980285 350.949122,245.769441 347.987665,245.5931 L329.463237,244.144031 L279,240.161008 L279.012254,240 Z" id="Path"></path>
                    <path d="M289,237.792148 C289,237.792148 306.98265,236.452656 324.973465,235.288684 L338.183875,234.364896 C340.294438,234.286374 342.331519,234.161663 344.270624,234.133949 L349.724613,234.018476 C351.414696,233.976905 352.965981,234.018476 354.337642,234.018476 C355.709304,234.018476 356.909508,234.018476 357.897432,234.050808 L361,234.138568 L361,234.332564 L357.917843,234.734411 C356.938085,234.863741 355.741963,234.993072 354.374383,235.127021 C353.006804,235.26097 351.463684,235.445727 349.777683,235.588915 L344.335941,236.027714 C342.405001,236.198614 340.363837,236.277136 338.257357,236.415704 L325.026535,236.849885 C307.019391,237.515012 289,238 289,238 L289,237.792148 Z" id="Path"></path>
                    <path d="M288.028757,243 C288.028757,243 304.346543,245.820084 320.635571,248.799163 L332.606877,250.945607 C334.504867,251.364017 336.34945,251.690377 338.079004,252.096234 L342.971875,253.209205 C344.487802,253.548117 345.847617,253.920502 347.080078,254.221757 C348.31254,254.523013 349.372456,254.794979 350.247503,255.058577 C352.001706,255.527197 353,255.828452 353,255.828452 L352.967134,256 C352.967134,256 351.931867,255.899582 350.132474,255.665272 C349.232777,255.560669 348.139995,255.410042 346.891101,255.225941 C345.642207,255.041841 344.228985,254.857741 342.700733,254.594142 L337.770889,253.757322 C336.012577,253.476987 334.17621,253.09205 332.265896,252.74477 L320.376754,250.179916 C304.173998,246.753138 288,243.171548 288,243.171548 L288.028757,243 Z" id="Path"></path>
                    <path d="M265.090363,266 L311.869667,293.896934 L329.038645,304.15316 C331.745429,305.843386 334.378279,307.435152 336.842726,309.014611 L343.792465,313.46171 L349.637311,317.260616 L354.118497,320.226717 L358,322.85231 L357.909637,323 L353.802226,320.74363 C352.504284,320.009285 350.927038,319.102634 349.119777,318.101627 L343.077776,314.626817 L335.988384,310.44638 C333.462327,308.973586 330.841798,307.344897 328.102155,305.703901 L311.15087,295.090759 L265,266.14769 L265.090363,266 Z" id="Path"></path>
                    <path d="M275.053236,266 C275.053236,266 292.936325,273.352564 310.757988,280.850027 L323.862152,286.31477 C325.909678,287.242121 327.957204,288.099092 329.828642,288.985043 L335.152209,291.469017 C336.79023,292.226629 338.284923,292.980101 339.615815,293.617655 C340.946707,294.255208 342.097416,294.826522 343.039278,295.315037 L346,296.838542 L345.934479,297 L342.801765,295.878072 C341.802572,295.522035 340.598627,295.05008 339.226785,294.532585 C337.854943,294.015091 336.290633,293.423077 334.615757,292.739984 L329.189814,290.537527 C327.25695,289.767495 325.258565,288.881544 323.170089,287.999733 L310.217441,282.145833 C292.56777,274.230235 275,266.173878 275,266.173878 L275.053236,266 Z" id="Path"></path>
                    <path d="M291.01636,268 C291.01636,268 305.584867,270.578581 320.116564,273.311544 L330.799591,275.276773 C332.492843,275.648122 334.141104,275.965229 335.683027,276.344924 L340.042945,277.383866 C341.392638,277.700974 342.619632,278.05146 343.723926,278.331015 C344.828221,278.61057 345.768916,278.869263 346.546012,279.102921 C348.108384,279.545202 349,279.828929 349,279.828929 L348.96728,280 C348.96728,280 348.042945,279.912378 346.431493,279.707928 C345.613497,279.616134 344.652352,279.482615 343.535787,279.315716 C342.419223,279.148818 341.159509,278.986092 339.793456,278.748261 L335.376278,277.997218 C333.809816,277.742698 332.169734,277.388039 330.468303,277.066759 L319.867076,274.688456 C305.417178,271.50904 291,268.171071 291,268.171071 L291.01636,268 Z" id="Path"></path>
                    <path d="M270.111394,273 C270.111394,273 285.31871,285.173805 300.431135,297.467733 L311.570515,306.46036 C313.307433,307.93911 315.015471,309.359871 316.583236,310.726783 L321.022485,314.612128 C322.400468,315.809212 323.625799,316.95659 324.735612,317.950708 C325.845424,318.944826 326.79846,319.818822 327.569965,320.556126 L330,322.867451 L329.888606,323 L327.178024,321.028332 C326.315753,320.398724 325.280204,319.619998 324.10438,318.717008 C322.928557,317.814017 321.579454,316.811615 320.151963,315.672521 L315.494052,312.010852 C313.843774,310.722641 312.16049,309.293596 310.390566,307.868694 L299.544111,298.519841 C284.720484,285.882114 270,273.120123 270,273.120123 L270.111394,273 Z" id="Path"></path>
                    <path d="M278.136945,284 C278.136945,284 287.644235,293.966942 297.02703,304.03719 C299.392441,306.541322 301.77445,309.024793 303.957268,311.400826 C305.015478,312.615702 306.073688,313.760331 307.015702,314.900826 L309.700651,318.090909 C310.530619,319.078512 311.252692,320.020661 311.916667,320.834711 C312.580642,321.64876 313.14087,322.371901 313.576604,322.979339 C314.497869,324.177686 315,324.884298 315,324.884298 L314.871355,325 C314.871355,325 314.21983,324.42562 313.124271,323.38843 C312.564042,322.876033 311.904217,322.239669 311.161395,321.5 C310.418573,320.760331 309.551256,319.946281 308.671489,319.020661 L305.766599,316.024793 C304.729139,314.966942 303.691678,313.797521 302.600269,312.619835 C300.4631,310.202479 298.234634,307.578512 295.989569,304.971074 C286.942912,294.595041 278,284.115702 278,284.115702 L278.136945,284 Z" id="Path"></path>
                    <path d="M241.147173,294 L271.080516,339.127485 C274.817073,344.768421 278.553631,350.41345 282.061253,355.702339 C283.761918,358.379532 285.446231,360.942105 286.967018,363.418713 L291.304532,370.377778 L294.910269,376.297076 L297.653409,380.881871 L300,384.905848 L299.856915,385 L297.14648,381.209357 L294.084465,376.833333 L290.159853,371.102339 C288.745358,368.994152 287.208218,366.714035 285.585227,364.29883 C283.962237,361.883626 282.314717,359.308772 280.556818,356.660234 L269.927661,339.876608 L241,294.098246 L241.147173,294 Z" id="Path"></path>
                    <path d="M245.160812,310 C245.160812,310 252.228314,327.34676 259.147373,344.734384 L264.268632,357.528897 C265.03146,359.572096 265.810782,361.558085 266.470525,363.45826 C267.130269,365.358435 267.781765,367.136019 268.367288,368.803269 C268.95281,370.47052 269.443494,371.99066 269.905315,373.343257 C270.367135,374.695855 270.750611,375.876824 271.051619,376.85756 C271.653635,378.819031 272,379.938704 272,379.938704 L271.839188,380 C271.839188,380 271.34438,378.937536 270.48259,377.074139 C270.049633,376.14244 269.542456,375.002335 268.97755,373.690601 C268.412645,372.378867 267.740531,370.911851 267.080788,369.285464 C266.421045,367.659078 265.68708,365.906013 264.916005,364.046702 C264.14493,362.187391 263.394472,360.201401 262.582162,358.162288 C261.072999,354.043199 259.464875,349.646235 257.852627,345.24927 C251.350031,327.677758 245,310.073555 245,310.073555 L245.160812,310 Z" id="Path"></path>
                    <path d="M255.126177,307 C255.126177,307 267.365301,319.723052 279.49046,332.537043 L288.444925,341.911924 C289.828797,343.449603 291.196388,344.90461 292.437802,346.343084 L295.954465,350.365024 C297.049351,351.605087 297.98957,352.787281 298.876876,353.812401 C299.764182,354.83752 300.504961,355.742766 301.099211,356.503339 L303,358.880127 L302.873823,359 L300.663699,356.933227 C299.955482,356.27186 299.117019,355.453418 298.164589,354.506836 C297.21216,353.560254 296.129484,352.510334 294.965403,351.319873 L291.23709,347.49221 C289.906131,346.144674 288.567031,344.660731 287.166879,343.160254 L278.493259,333.462957 C266.689646,320.347218 255,307.119873 255,307.119873 L255.126177,307 Z" id="Path"></path>
                    <path d="M212.171579,312 C212.171579,312 218.181041,333.917043 224.186317,355.834086 L228.588792,371.929798 C229.233261,374.510684 229.898654,376.997346 230.451055,379.377496 C231.003457,381.757646 231.543304,383.994414 232.037118,386.067315 C232.530932,388.140217 232.928493,390.053349 233.292576,391.741167 C233.656659,393.428984 233.987263,394.903775 234.229985,396.124575 L235,399.954937 L234.828421,400 L233.63155,396.272054 C233.250728,395.088124 232.794578,393.642009 232.317504,391.982869 C231.840429,390.323728 231.241994,388.455658 230.668668,386.40324 C230.095342,384.350822 229.459243,382.130441 228.798035,379.783064 C228.136827,377.435687 227.492358,374.940831 226.797671,372.372236 C225.542213,367.202272 224.165393,361.68819 222.809498,356.174107 C217.411026,334.105489 212,312.057353 212,312.057353 L212.171579,312 Z" id="Path"></path>
                    <path d="M210.155709,322 C210.155709,322 211.490361,340.970101 212.673752,359.964947 C212.985171,364.711596 213.296589,369.449997 213.585764,373.903847 C213.665843,376.130772 213.794859,378.283466 213.826001,380.324814 C213.857143,382.366162 213.914978,384.300288 213.955017,386.098323 C213.995057,387.896359 213.955017,389.517065 213.986159,390.968691 C214.017301,392.420316 213.986159,393.68224 213.986159,394.725596 C213.941671,396.787563 213.914978,398 213.914978,398 L213.728127,398 C213.728127,398 213.581315,396.816431 213.33218,394.742091 C213.203164,393.706984 213.074147,392.449183 212.940682,391.005806 C212.807217,389.562429 212.624815,387.933474 212.495798,386.151934 C212.366782,384.370394 212.211073,382.440393 212.050914,380.411417 C211.890756,378.382441 211.797331,376.221499 211.659417,373.994574 C211.512605,369.540724 211.356896,364.785827 211.214533,360.035053 C210.520514,341.027837 210,322.016496 210,322.016496 L210.155709,322 Z" id="Path"></path>
                    <path d="M219.166771,322 C219.166771,322 225.967772,335.824079 232.626408,349.709527 C234.30632,353.174752 235.982165,356.639977 237.55632,359.892461 C238.288486,361.52893 239.040989,363.116306 239.675532,364.646406 L241.501877,368.938048 C242.071339,370.263589 242.539111,371.507306 242.982478,372.595558 C243.425845,373.683811 243.795995,374.641146 244.084793,375.434833 C244.686796,377.009936 245,377.926359 245,377.926359 L244.845432,378 C244.845432,378 244.353254,377.181765 243.539737,375.688486 C243.132979,374.952075 242.640801,374.052016 242.095745,373.008767 C241.550688,371.965517 240.912078,370.807715 240.261264,369.518995 L238.174593,365.345996 C237.426158,363.873174 236.710263,362.281707 235.929287,360.653419 C234.477159,357.34775 232.927409,353.825248 231.373592,350.298656 C225.117647,336.220923 219,322.06955 219,322.06955 L219.166771,322 Z" id="Path"></path>
                    <polygon id="Rectangle" transform="translate(193.415298, 80.148333) rotate(-0.460000) translate(-193.415298, -80.148333) " points="192.554684 6.35995378 194.276506 6.35994685 194.275912 153.936712 192.55409 153.936719"></polygon>
                    <ellipse id="Oval" transform="translate(193.407526, 114.822733) rotate(-80.930000) translate(-193.407526, -114.822733) " cx="193.407526" cy="114.822733" rx="2.98595189" ry="2.98452874"></ellipse>
                    <circle id="Oval" cx="99" cy="137" r="3"></circle>
                    <circle id="Oval" cx="78" cy="223" r="3"></circle>
                    <circle id="Oval" cx="110" cy="303" r="3"></circle>
                    <circle id="Oval" cx="193" cy="63" r="3"></circle>
                    <polygon id="Rectangle" transform="translate(193.398817, 365.212920) rotate(-0.460000) translate(-193.398817, -365.212920) " points="192.538203 291.422491 194.260025 291.422484 194.259431 439.00335 192.537609 439.003357"></polygon>
                    <circle id="Oval" cx="193" cy="373" r="3"></circle>
                    <circle id="Oval" cx="193" cy="321" r="3"></circle>
                    <polygon id="Rectangle" transform="translate(81.486190, 121.514665) rotate(-47.580000) translate(-81.486190, -121.514665) " points="80.6447264 42.7276368 82.3670193 42.7272065 82.327654 200.301694 80.6053611 200.302124"></polygon>
                    <polygon id="Rectangle" transform="translate(64.082037, 221.939536) rotate(-86.710000) translate(-64.082037, -221.939536) " points="63.2223475 164.485954 64.9450307 164.485905 64.9417271 279.393118 63.2190439 279.393167"></polygon>
                    <polygon id="Rectangle" transform="translate(93.722279, 321.709964) rotate(-48.090000) translate(-93.722279, -321.709964) " points="23.7437828 320.866311 163.701205 320.83141 163.700775 322.553618 23.7433533 322.588518"></polygon>
                    <ellipse id="Oval" transform="translate(284.714939, 139.831521) rotate(-13.240000) translate(-284.714939, -139.831521) " cx="284.714939" cy="139.831521" rx="2.98457008" ry="2.98591055"></ellipse>
                    <circle id="Oval" cx="307" cy="223" r="3"></circle>
                    <circle id="Oval" cx="276" cy="302" r="3"></circle>
                    <polygon id="Rectangle" transform="translate(302.308652, 124.271556) rotate(-42.390000) translate(-302.308652, -124.271556) " points="223.519594 123.430091 381.098141 123.390728 381.09771 125.113021 223.519164 125.152384"></polygon>
                    <polygon id="Rectangle" transform="translate(320.021064, 221.924949) rotate(-3.250000) translate(-320.021064, -221.924949) " points="262.565434 221.065239 377.476742 221.061975 377.476693 222.784658 262.565385 222.787922"></polygon>
                    <polygon id="Rectangle" transform="translate(292.109520, 320.917607) rotate(-41.950000) translate(-292.109520, -320.917607) " points="291.265868 250.939135 292.988077 250.938705 292.953171 390.896079 291.230962 390.896508"></polygon>
                </g>
            </g>
        </g>
    </g>
</svg>
